<?xml version="1.0" standalone="no"?><!DOCTYPE svg PUBLIC "-//W3C//DTD SVG 1.1//EN" "http://www.w3.org/Graphics/SVG/1.1/DTD/svg11.dtd"><svg t="1623145148086" class="icon" viewBox="0 0 1024 1024" version="1.1" xmlns="http://www.w3.org/2000/svg" p-id="10092" xmlns:xlink="http://www.w3.org/1999/xlink" width="200" height="200"><defs><style type="text/css"></style></defs><path d="M975.361 975.316h-926.738c-26.899 0-48.736-21.839-48.736-48.749v-829.149c0-26.899 21.836-48.737 48.736-48.737h560.971v73.1h-512.116c-13.558 0-24.479 10.917-24.479 24.372v731.676c0 13.456 10.921 24.362 24.479 24.362h829.043c13.55 0 24.483-10.905 24.483-24.362v-463.364h73.108v512.102c0 26.911-21.839 48.749-48.752 48.749v0zM902.156 292.499c-13.146 0-25.696-2.644-37.174-7.385l-422.006 422.012-4.085-4.192-4.194 4.192-142.256-142.26-117.764 117.777-52.606-52.595 166.847-166.847 3.632 3.632 3.643-3.632 142.698 142.698 373.392-373.404c-4.862-11.574-7.609-24.147-7.609-37.484 0-53.931 43.661-97.595 97.484-97.595 53.919 0 97.591 43.663 97.591 97.595 0.001 53.809-43.671 97.486-97.591 97.486v0z" p-id="10093"></path></svg>