<?xml version="1.0" standalone="no"?><!DOCTYPE svg PUBLIC "-//W3C//DTD SVG 1.1//EN" "http://www.w3.org/Graphics/SVG/1.1/DTD/svg11.dtd"><svg t="1623145053569" class="icon" viewBox="0 0 1024 1024" version="1.1" xmlns="http://www.w3.org/2000/svg" p-id="7583" xmlns:xlink="http://www.w3.org/1999/xlink" width="200" height="200"><defs><style type="text/css"></style></defs><path d="M987.858824 512v-96.376471c0-72.282353-54.211765-126.494118-126.494118-126.494117v-66.258824c0-72.282353-54.211765-126.494118-126.494118-126.494117h-114.447059l-36.141176-48.188236c-12.047059-12.047059-30.117647-18.070588-42.164706-6.023529l-72.282353 54.211765h-307.2c-72.282353 0-126.494118 54.211765-126.494118 126.494117V861.364706c0 72.282353 54.211765 126.494118 126.494118 126.494118h698.729412c72.282353 0 126.494118-54.211765 126.494118-126.494118V512z m-60.235295 192.752941h-192.752941c-36.141176 0-66.258824-30.117647-66.258823-66.258823 0-36.141176 30.117647-66.258824 66.258823-66.258824h192.752941v132.517647z m-192.752941-548.141176c36.141176 0 66.258824 30.117647 66.258824 66.258823v66.258824h-42.164706l-96.376471-132.517647h72.282353z m-180.705882-48.188236l120.470588 168.658824h-355.388235l234.917647-168.658824z m-391.529412 48.188236h222.870588l-174.682353 126.494117s0 6.023529-6.023529 6.02353h-42.164706c-36.141176 0-66.258824-30.117647-66.258823-66.258824 0-36.141176 30.117647-66.258824 66.258823-66.258823z m764.988235 704.752941c0 36.141176-30.117647 66.258824-66.258823 66.258823h-698.729412c-36.141176 0-66.258824-30.117647-66.258823-66.258823v-530.070588c18.070588 12.047059 42.164706 18.070588 66.258823 18.070588H861.364706c36.141176 0 66.258824 30.117647 66.258823 66.258823v96.376471h-192.752941c-72.282353 0-126.494118 54.211765-126.494117 126.494118 0 66.258824 54.211765 126.494118 126.494117 126.494117h192.752941v96.376471z" fill="#0E0E19" p-id="7584"></path><path d="M734.870588 638.494118m-30.117647 0a30.117647 30.117647 0 1 0 60.235294 0 30.117647 30.117647 0 1 0-60.235294 0Z" fill="#0E0E19" p-id="7585"></path></svg>