<?xml version="1.0" standalone="no"?><!DOCTYPE svg PUBLIC "-//W3C//DTD SVG 1.1//EN" "http://www.w3.org/Graphics/SVG/1.1/DTD/svg11.dtd"><svg t="1623141951859" class="icon" viewBox="0 0 1024 1024" version="1.1" xmlns="http://www.w3.org/2000/svg" p-id="2524" xmlns:xlink="http://www.w3.org/1999/xlink" width="200" height="200"><defs><style type="text/css"></style></defs><path d="M439.3728 455.936V208.5632H246.9632v247.3728c0 30.3616 24.6272 54.9632 54.9632 54.9632v302.336h82.4576v-302.336a54.9632 54.9632 0 0 0 54.9888-54.9632z m54.9632 0a109.9008 109.9008 0 0 1-54.9632 95.232v262.0672a54.9632 54.9632 0 0 1-54.9888 54.9632h-82.432a54.9888 54.9888 0 0 1-54.9888-54.9632V551.168A109.8752 109.8752 0 0 1 192 455.936V208.5632C192 178.2016 216.6016 153.6 246.9632 153.6h192.4096c30.336 0 54.9632 24.6016 54.9632 54.9632v247.3728z m-219.904-247.3728h54.9888v164.9152a27.4944 27.4944 0 1 1-54.9632 0V208.5632h-0.0256z m497.8432-54.912c28.8768 1.1264 51.8656 25.2928 51.8656 54.912v604.672c0 30.3616-24.192 54.9632-53.9648 54.9632h-53.9904c-29.7984 0-53.9904-24.576-53.9904-54.9632v-219.1616c-54.016-26.7776-85.4016-81.9712-85.4016-159.0016 0-82.0736 6.656-143.872 27.8016-186.5216C637.4656 182.3232 684.6464 153.6 743.168 153.6h29.1072v0.0512z m-56.064 422.1184v237.4656h53.9648V208.5632H743.168c-38.4 0-66.816 17.3312-90.4192 64.768-15.9488 32.1536-21.9904 88.5248-21.9904 161.7408 0 62.3104 24.3968 99.4816 66.8672 114.56l7.6032 2.7392 5.1968 1.92c2.304 0.896 3.2256 1.1776 3.6352 1.28a13.7472 13.7472 0 0 0 2.1248 0.0768v20.1216h0.0256zM356.9152 208.5632h54.9632v164.9152a27.4944 27.4944 0 0 1-54.9632 0V208.5632z" p-id="2525"></path></svg>